<?xml version="1.0" encoding="utf-8"?>
<!-- Generator: Adobe Illustrator 24.2.3, SVG Export Plug-In . SVG Version: 6.00 Build 0)  -->
<svg version="1.1" id="Layer_1" xmlns="http://www.w3.org/2000/svg" xmlns:xlink="http://www.w3.org/1999/xlink" x="0px" y="0px"
	 viewBox="0 0 162.69 158.29" style="enable-background:new 0 0 162.69 158.29;" xml:space="preserve">
<style type="text/css">
	.st0{fill:#0066F5;}
	.st1{fill:none;stroke:#0066F5;stroke-width:4;stroke-miterlimit:10;}
	.st2{fill:none;stroke:#0066F5;stroke-width:3;stroke-miterlimit:10;}
	.st3{fill:none;stroke:#0066F5;stroke-miterlimit:10;}
	.st4{fill:#FFFFFF;}
	.st5{fill:none;stroke:#0066F5;stroke-width:7;stroke-miterlimit:10;}
	.st6{fill:none;stroke:#0066F5;stroke-width:6;stroke-miterlimit:10;}
	.st7{fill:none;stroke:#0066F5;stroke-width:5;stroke-miterlimit:10;}
	.st8{fill:none;stroke:#0066F5;stroke-width:2;stroke-miterlimit:10;}
</style>
<g>
	<g>
		<path class="st0" d="M80.12,91.49c2.38-0.05,4.18-1.73,4.51-4.04c0.1-0.7,0.47-1.49,0.97-1.98c2.42-2.37,4.81-4.78,7.43-6.92
			c5.13-4.21,8.63-9.73,12.49-14.97c0.35-0.47,0.74-0.93,1.02-1.44c0.23-0.43,0.33-0.92,0.49-1.39c-0.47,0.13-1.02,0.14-1.4,0.41
			c-2.71,1.94-5.33,4.02-8.1,5.87c-4.93,3.31-8.29,8.18-12.44,12.26c-0.49,0.48-1.03,0.95-1.38,1.53c-1.01,1.66-2.52,1.94-4.24,1.62
			c-0.38-0.07-0.76-0.38-1.03-0.68c-2.03-2.27-4.13-4.48-6.01-6.86c-3.01-3.81-7.4-5.74-11.16-8.53c-0.19-0.14-0.59-0.02-0.89-0.02
			c0.04,0.35-0.03,0.77,0.14,1.04c3,4.87,5.59,10.05,10.31,13.62c0.97,0.74,1.77,1.69,2.66,2.54c1.18,1.12,2.32,2.04,2.25,4.08
			C75.67,89.86,77.91,91.54,80.12,91.49z"/>
	</g>
</g>
<circle class="st6" cx="82.63" cy="79.82" r="67.6"/>
<circle class="st7" cx="82.63" cy="79.82" r="58.62"/>
<path class="st8" d="M125.32,107.71c0,0-8.84,15.51-28.35,20.97"/>
<polygon class="st4" points="105.67,120.14 121.93,144.88 131.74,139.06 114.57,112.26 "/>
<g>
	<g>
		<path class="st8" d="M74.16,44.15c6.43,0,12.59,0,18.86,0c-0.1-1.11-0.19-2.13-0.28-3.15c-0.32-3.67-1.39-4.29-5.04-5.04
			c-0.83,1.55-1.73,3.08-2.48,4.68c-0.41,0.88-1.08,0.7-1.76,0.75c-0.66,0.05-1.09-0.11-1.41-0.77c-0.66-1.36-1.45-2.66-2.11-4.03
			c-0.32-0.67-0.67-0.76-1.3-0.46c-0.46,0.23-0.96,0.37-1.46,0.53c-1.23,0.39-2.08,1.24-2.33,2.46
			C74.53,40.74,74.4,42.4,74.16,44.15z"/>
		<path class="st8" d="M79.85,31.98c-0.03,2.19,1.62,3.94,3.76,3.97c2.13,0.03,3.93-1.7,3.97-3.81c0.04-2.08-1.76-3.91-3.86-3.93
			C81.63,28.19,79.88,29.9,79.85,31.98z"/>
	</g>
</g>
<g>
	<g>
		<path class="st8" d="M74.86,130.94c6.43,0,12.59,0,18.86,0c-0.1-1.11-0.19-2.13-0.28-3.15c-0.32-3.67-1.39-4.29-5.04-5.04
			c-0.83,1.55-1.73,3.08-2.48,4.68c-0.41,0.88-1.08,0.7-1.76,0.75c-0.66,0.05-1.09-0.11-1.41-0.77c-0.66-1.36-1.45-2.66-2.11-4.03
			c-0.32-0.67-0.67-0.76-1.3-0.46c-0.46,0.23-0.96,0.37-1.46,0.53c-1.23,0.39-2.08,1.24-2.33,2.46
			C75.23,127.53,75.09,129.19,74.86,130.94z"/>
		<path class="st8" d="M80.54,118.77c-0.03,2.19,1.62,3.94,3.76,3.97c2.13,0.03,3.93-1.7,3.97-3.81c0.04-2.08-1.76-3.91-3.86-3.93
			C82.33,114.98,80.58,116.69,80.54,118.77z"/>
	</g>
</g>
<g>
	<g>
		<path class="st8" d="M111.15,103.67c6.43,0,12.59,0,18.86,0c-0.1-1.11-0.19-2.13-0.28-3.15c-0.32-3.67-1.39-4.29-5.04-5.04
			c-0.83,1.55-1.73,3.08-2.48,4.68c-0.41,0.88-1.08,0.7-1.76,0.75c-0.66,0.05-1.09-0.11-1.41-0.77c-0.66-1.36-1.45-2.66-2.11-4.03
			c-0.32-0.67-0.67-0.76-1.3-0.46c-0.46,0.23-0.96,0.37-1.46,0.53c-1.23,0.39-2.08,1.24-2.33,2.46
			C111.52,100.26,111.38,101.92,111.15,103.67z"/>
		<path class="st8" d="M116.83,91.5c-0.03,2.19,1.62,3.94,3.76,3.97c2.13,0.03,3.93-1.7,3.97-3.81c0.04-2.08-1.76-3.91-3.86-3.93
			C118.62,87.71,116.86,89.42,116.83,91.5z"/>
	</g>
</g>
<g>
	<g>
		<path class="st8" d="M114.55,68.95c6.43,0,12.59,0,18.86,0c-0.1-1.11-0.19-2.13-0.28-3.15c-0.32-3.67-1.39-4.29-5.04-5.04
			c-0.83,1.55-1.73,3.08-2.48,4.68c-0.41,0.88-1.08,0.7-1.76,0.75c-0.66,0.05-1.09-0.11-1.41-0.77c-0.66-1.36-1.45-2.66-2.11-4.03
			c-0.32-0.67-0.67-0.76-1.3-0.46c-0.46,0.23-0.96,0.37-1.46,0.53c-1.23,0.39-2.08,1.24-2.33,2.46
			C114.92,65.55,114.79,67.2,114.55,68.95z"/>
		<path class="st8" d="M120.24,56.78c-0.03,2.19,1.62,3.94,3.76,3.97c2.13,0.03,3.93-1.7,3.97-3.81c0.04-2.08-1.76-3.91-3.86-3.93
			C122.02,52.99,120.27,54.7,120.24,56.78z"/>
	</g>
</g>
<g>
	<g>
		<path class="st8" d="M31.94,68.95c6.43,0,12.59,0,18.86,0c-0.1-1.11-0.19-2.13-0.28-3.15c-0.32-3.67-1.39-4.29-5.04-5.04
			c-0.83,1.55-1.73,3.08-2.48,4.68c-0.41,0.88-1.08,0.7-1.76,0.75c-0.66,0.05-1.09-0.11-1.41-0.77c-0.66-1.36-1.45-2.66-2.11-4.03
			c-0.32-0.67-0.67-0.76-1.3-0.46c-0.46,0.23-0.96,0.37-1.46,0.53c-1.23,0.39-2.08,1.24-2.33,2.46
			C32.31,65.55,32.17,67.2,31.94,68.95z"/>
		<path class="st8" d="M37.62,56.78c-0.03,2.19,1.62,3.94,3.76,3.97c2.13,0.03,3.93-1.7,3.97-3.81c0.04-2.08-1.76-3.91-3.86-3.93
			C39.41,52.99,37.65,54.7,37.62,56.78z"/>
	</g>
</g>
<g>
	<g>
		<path class="st8" d="M35.34,103.9c6.43,0,12.59,0,18.86,0c-0.1-1.11-0.19-2.13-0.28-3.15c-0.32-3.67-1.39-4.29-5.04-5.04
			c-0.83,1.55-1.73,3.08-2.48,4.68c-0.41,0.88-1.08,0.7-1.76,0.75c-0.66,0.05-1.09-0.11-1.41-0.77c-0.66-1.36-1.45-2.66-2.11-4.03
			c-0.32-0.67-0.67-0.76-1.3-0.46c-0.46,0.23-0.96,0.37-1.46,0.53c-1.23,0.39-2.08,1.24-2.33,2.46
			C35.71,100.49,35.58,102.15,35.34,103.9z"/>
		<path class="st8" d="M41.03,91.73c-0.03,2.19,1.62,3.94,3.76,3.97c2.13,0.03,3.93-1.7,3.97-3.81c0.04-2.08-1.76-3.91-3.86-3.93
			C42.81,87.94,41.06,89.65,41.03,91.73z"/>
	</g>
</g>
<path class="st8" d="M43.33,49.89c0,0,10.67-15.34,31.53-19.21"/>
<path class="st8" d="M69.15,128.83c0,0-17.37-4.1-28.12-21.27"/>
<path class="st8" d="M90.89,31.33c0,0,18.61,1.7,32.28,17.92"/>
<path class="st8" d="M34.25,72.5c0,0-3.11,11.69,1.75,20.74"/>
<path class="st8" d="M130.1,93.24c0,0,4.95-11.04,1.61-20.75"/>
</svg>
