<?xml version="1.0" encoding="utf-8"?>
<!-- Generator: Adobe Illustrator 24.2.3, SVG Export Plug-In . SVG Version: 6.00 Build 0)  -->
<svg version="1.1" id="Layer_1" xmlns="http://www.w3.org/2000/svg" xmlns:xlink="http://www.w3.org/1999/xlink" x="0px" y="0px"
	 viewBox="0 0 361.08 192.44" style="enable-background:new 0 0 361.08 192.44;" xml:space="preserve">
<style type="text/css">
	.st0{fill:#0066F5;}
	.st1{font-family:'Montserrat-Bold';}
	.st2{font-size:49.3812px;}
	.st3{fill:none;stroke:#0066F5;stroke-width:4;stroke-miterlimit:10;}
	.st4{fill:none;stroke:#0066F5;stroke-width:3;stroke-miterlimit:10;}
	.st5{fill:none;stroke:#0066F5;stroke-miterlimit:10;}
	.st6{fill:#FFFFFF;}
</style>
<g>
	<text transform="matrix(1 0 0 1 110.0913 115.9551)" class="st0 st1 st2">Herrands</text>
</g>
<g>
	<g>
		<path class="st0" d="M61.29,103.08c1.4-0.03,2.45-1.02,2.65-2.37c0.06-0.41,0.28-0.87,0.57-1.16c1.42-1.39,2.83-2.81,4.36-4.07
			c3.02-2.47,5.07-5.72,7.34-8.8c0.21-0.28,0.43-0.54,0.6-0.85c0.14-0.25,0.19-0.54,0.29-0.82c-0.28,0.08-0.6,0.08-0.82,0.24
			c-1.6,1.14-3.13,2.36-4.76,3.45c-2.9,1.94-4.87,4.8-7.31,7.2c-0.29,0.28-0.6,0.56-0.81,0.9c-0.6,0.98-1.48,1.14-2.49,0.95
			c-0.22-0.04-0.45-0.22-0.61-0.4c-1.19-1.33-2.42-2.63-3.53-4.03c-1.77-2.24-4.35-3.37-6.56-5.01c-0.11-0.08-0.34-0.01-0.52-0.01
			c0.02,0.2-0.02,0.45,0.08,0.61c1.76,2.86,3.28,5.9,6.06,8c0.57,0.43,1.04,1,1.56,1.49c0.69,0.66,1.37,1.2,1.32,2.4
			C58.67,102.12,59.99,103.1,61.29,103.08z"/>
	</g>
</g>
<circle class="st3" cx="62.76" cy="96.22" r="39.72"/>
<circle class="st4" cx="62.76" cy="96.22" r="34.44"/>
<path class="st5" d="M87.84,112.6c0,0-5.19,9.11-16.65,12.32"/>
<polygon class="st6" points="76.3,119.91 85.85,134.44 91.61,131.02 81.53,115.28 "/>
<g>
	<g>
		<path class="st5" d="M57.79,75.26c3.78,0,7.4,0,11.08,0c-0.06-0.65-0.11-1.25-0.17-1.85c-0.19-2.15-0.82-2.52-2.96-2.96
			c-0.49,0.91-1.02,1.81-1.46,2.75c-0.24,0.52-0.63,0.41-1.03,0.44c-0.39,0.03-0.64-0.07-0.83-0.45c-0.39-0.8-0.85-1.56-1.24-2.37
			c-0.19-0.39-0.4-0.45-0.76-0.27c-0.27,0.13-0.57,0.22-0.86,0.31c-0.73,0.23-1.22,0.73-1.37,1.45C58,73.26,57.92,74.23,57.79,75.26
			z"/>
		<path class="st5" d="M61.13,68.11c-0.02,1.29,0.95,2.31,2.21,2.33c1.25,0.02,2.31-1,2.33-2.24c0.02-1.22-1.04-2.3-2.27-2.31
			C62.18,65.88,61.15,66.89,61.13,68.11z"/>
	</g>
</g>
<g>
	<g>
		<path class="st5" d="M58.2,126.25c3.78,0,7.4,0,11.08,0c-0.06-0.65-0.11-1.25-0.17-1.85c-0.19-2.15-0.82-2.52-2.96-2.96
			c-0.49,0.91-1.02,1.81-1.46,2.75c-0.24,0.52-0.63,0.41-1.03,0.44c-0.39,0.03-0.64-0.07-0.83-0.45c-0.39-0.8-0.85-1.56-1.24-2.37
			c-0.19-0.39-0.4-0.45-0.76-0.27c-0.27,0.13-0.57,0.22-0.86,0.31c-0.73,0.23-1.22,0.73-1.37,1.45
			C58.41,124.25,58.33,125.22,58.2,126.25z"/>
		<path class="st5" d="M61.54,119.1c-0.02,1.29,0.95,2.31,2.21,2.33c1.25,0.02,2.31-1,2.33-2.24c0.02-1.22-1.04-2.3-2.27-2.31
			C62.59,116.87,61.56,117.88,61.54,119.1z"/>
	</g>
</g>
<g>
	<g>
		<path class="st5" d="M79.52,110.23c3.78,0,7.4,0,11.08,0c-0.06-0.65-0.11-1.25-0.17-1.85c-0.19-2.15-0.82-2.52-2.96-2.96
			c-0.49,0.91-1.02,1.81-1.46,2.75c-0.24,0.52-0.63,0.41-1.03,0.44c-0.39,0.03-0.64-0.07-0.83-0.45c-0.39-0.8-0.85-1.56-1.24-2.37
			c-0.19-0.39-0.4-0.45-0.76-0.27c-0.27,0.13-0.57,0.22-0.86,0.31c-0.73,0.23-1.22,0.73-1.37,1.45
			C79.73,108.23,79.66,109.2,79.52,110.23z"/>
		<path class="st5" d="M82.86,103.08c-0.02,1.29,0.95,2.31,2.21,2.33c1.25,0.02,2.31-1,2.33-2.24c0.02-1.22-1.04-2.3-2.27-2.31
			C83.91,100.85,82.88,101.86,82.86,103.08z"/>
	</g>
</g>
<g>
	<g>
		<path class="st5" d="M81.52,89.83c3.78,0,7.4,0,11.08,0c-0.06-0.65-0.11-1.25-0.17-1.85c-0.19-2.15-0.82-2.52-2.96-2.96
			c-0.49,0.91-1.02,1.81-1.46,2.75c-0.24,0.52-0.63,0.41-1.03,0.44c-0.39,0.03-0.64-0.07-0.83-0.45c-0.39-0.8-0.85-1.56-1.24-2.37
			c-0.19-0.39-0.4-0.45-0.76-0.27c-0.27,0.13-0.57,0.22-0.86,0.31c-0.73,0.23-1.22,0.73-1.37,1.45
			C81.73,87.83,81.66,88.81,81.52,89.83z"/>
		<path class="st5" d="M84.86,82.68c-0.02,1.29,0.95,2.31,2.21,2.33c1.25,0.02,2.31-1,2.33-2.24c0.02-1.22-1.04-2.3-2.27-2.31
			C85.91,80.46,84.88,81.46,84.86,82.68z"/>
	</g>
</g>
<g>
	<g>
		<path class="st5" d="M32.98,89.83c3.78,0,7.4,0,11.08,0c-0.06-0.65-0.11-1.25-0.17-1.85c-0.19-2.15-0.82-2.52-2.96-2.96
			c-0.49,0.91-1.02,1.81-1.46,2.75c-0.24,0.52-0.63,0.41-1.03,0.44c-0.39,0.03-0.64-0.07-0.83-0.45c-0.39-0.8-0.85-1.56-1.24-2.37
			c-0.19-0.39-0.4-0.45-0.76-0.27c-0.27,0.13-0.57,0.22-0.86,0.31c-0.73,0.23-1.22,0.73-1.37,1.45
			C33.2,87.83,33.12,88.81,32.98,89.83z"/>
		<path class="st5" d="M36.32,82.68c-0.02,1.29,0.95,2.31,2.21,2.33c1.25,0.02,2.31-1,2.33-2.24c0.02-1.22-1.04-2.3-2.27-2.31
			C37.37,80.46,36.34,81.46,36.32,82.68z"/>
	</g>
</g>
<g>
	<g>
		<path class="st5" d="M34.98,110.37c3.78,0,7.4,0,11.08,0c-0.06-0.65-0.11-1.25-0.17-1.85c-0.19-2.15-0.82-2.52-2.96-2.96
			c-0.49,0.91-1.02,1.81-1.46,2.75c-0.24,0.52-0.63,0.41-1.03,0.44c-0.39,0.03-0.64-0.07-0.83-0.45c-0.39-0.8-0.85-1.56-1.24-2.37
			c-0.19-0.39-0.4-0.45-0.76-0.27c-0.27,0.13-0.57,0.22-0.86,0.31c-0.73,0.23-1.22,0.73-1.37,1.45
			C35.2,108.36,35.12,109.34,34.98,110.37z"/>
		<path class="st5" d="M38.32,103.21c-0.02,1.29,0.95,2.31,2.21,2.33c1.25,0.02,2.31-1,2.33-2.24c0.02-1.22-1.04-2.3-2.27-2.31
			C39.37,100.99,38.34,101.99,38.32,103.21z"/>
	</g>
</g>
<path class="st5" d="M39.67,78.63c0,0,6.27-9.02,18.52-11.29"/>
<path class="st5" d="M54.84,125.01c0,0-10.21-2.41-16.52-12.5"/>
<path class="st5" d="M67.62,67.73c0,0,10.94,1,18.97,10.53"/>
<path class="st5" d="M34.34,91.92c0,0-1.83,6.87,1.03,12.18"/>
<path class="st5" d="M90.65,104.1c0,0,2.91-6.49,0.94-12.19"/>
</svg>
